<?xml version="1.0" standalone="no"?>
<!DOCTYPE svg PUBLIC "-//W3C//DTD SVG 20010904//EN"
 "http://www.w3.org/TR/2001/REC-SVG-20010904/DTD/svg10.dtd">
<svg version="1.0" xmlns="http://www.w3.org/2000/svg"
 width="451.000000pt" height="451.000000pt" viewBox="0 0 451.000000 451.000000"
 preserveAspectRatio="xMidYMid meet">
<metadata>
Created by potrace 1.14, written by Peter Selinger 2001-2017
</metadata>
<g transform="translate(0.000000,451.000000) scale(0.100000,-0.100000)"
fill="#000000" stroke="none">
<path d="M2329 4289 c-14 -14 -19 -28 -15 -44 4 -15 -2 -37 -15 -59 -18 -31
-27 -36 -57 -37 -21 0 -63 -2 -94 -3 -56 -3 -58 -2 -78 31 -11 19 -20 47 -20
63 0 32 -23 50 -64 50 -31 0 -50 -31 -43 -73 6 -43 -10 -95 -31 -101 -9 -2
-52 -12 -95 -22 l-78 -18 -24 30 c-13 16 -26 41 -29 55 -10 49 -81 56 -106 9
-8 -16 -8 -27 3 -48 7 -16 12 -44 9 -64 -4 -34 -8 -37 -93 -76 l-89 -41 -32
34 c-18 18 -41 43 -50 54 -22 26 -52 27 -77 2 -22 -22 -20 -69 4 -87 9 -7 15
-28 15 -51 0 -37 -3 -41 -76 -92 l-76 -53 -39 17 c-21 10 -41 26 -44 35 -5 15
-32 29 -57 30 -16 0 -48 -41 -48 -60 0 -12 12 -32 26 -45 16 -15 27 -38 30
-62 4 -36 1 -42 -59 -102 -58 -58 -67 -63 -95 -57 -17 4 -40 16 -53 27 -25 21
-69 25 -87 7 -26 -26 -4 -98 28 -98 5 0 18 -16 28 -37 l19 -36 -50 -83 -50
-83 -40 4 c-22 3 -45 9 -51 15 -27 27 -96 0 -96 -38 0 -26 29 -62 49 -62 24 0
64 -57 58 -83 -12 -52 -51 -143 -66 -155 -11 -10 -33 -12 -77 -7 -57 6 -63 4
-78 -17 -9 -12 -16 -30 -16 -39 0 -21 31 -49 55 -49 10 0 34 -12 52 -26 28
-21 33 -31 28 -51 -3 -14 -8 -48 -11 -76 -11 -94 -26 -108 -124 -111 -28 -1
-37 -7 -48 -29 -20 -41 5 -77 52 -77 19 0 48 -8 65 -17 26 -15 31 -24 32 -58
0 -22 3 -65 5 -95 3 -55 3 -56 -32 -75 -20 -11 -47 -20 -60 -21 -33 -1 -54
-22 -54 -54 0 -34 27 -59 60 -53 14 2 33 4 42 4 24 0 73 -24 73 -36 1 -6 9
-46 20 -89 l19 -79 -32 -28 c-18 -16 -41 -29 -51 -29 -24 0 -44 -24 -44 -55 0
-51 35 -66 98 -44 56 21 80 4 124 -87 l39 -81 -21 -32 c-11 -18 -31 -37 -44
-42 -13 -5 -28 -20 -35 -33 -24 -53 48 -101 91 -61 9 8 33 16 54 18 36 4 38 2
93 -70 64 -86 65 -103 9 -159 -47 -47 -46 -77 3 -103 24 -13 49 -4 83 30 10
10 28 20 39 20 11 1 24 2 28 3 5 1 39 -27 76 -61 65 -60 67 -63 60 -99 -4 -20
-15 -44 -25 -52 -37 -32 -15 -102 31 -102 10 0 20 -7 22 -16 2 -8 37 -30 78
-48 l75 -33 3 -117 c2 -90 0 -116 -10 -114 -10 2 -14 -25 -16 -112 l-3 -115
921 0 920 -1 1 31 c1 16 1 54 1 82 l-1 53 100 0 99 0 0 29 c0 20 -6 32 -19 36
-17 5 -19 16 -18 104 0 59 5 105 12 115 7 9 43 31 81 48 l69 33 -2 45 c-1 25
-2 50 -2 57 -1 6 -36 -9 -78 -33 -43 -24 -80 -44 -83 -44 -3 0 -5 14 -5 32 0
28 9 39 69 85 38 29 76 53 83 53 23 0 72 -29 82 -49 21 -38 84 -31 100 11 9
24 -2 55 -26 73 -8 6 -18 28 -23 48 -8 37 -7 40 57 107 l65 68 39 -14 c22 -7
47 -20 55 -29 21 -21 50 -19 74 5 32 32 25 66 -18 89 -13 7 -30 28 -38 47 -14
34 -14 36 33 114 l48 79 42 -2 c23 -2 48 -8 55 -15 25 -25 78 -8 90 28 9 26
-11 61 -40 71 -16 5 -39 23 -51 40 l-22 30 34 87 c33 86 34 87 73 93 21 4 43
3 49 -2 29 -28 85 7 85 54 0 28 -41 64 -59 52 -6 -3 -24 7 -41 22 -30 26 -31
30 -25 83 15 128 17 132 59 146 21 8 49 11 63 8 31 -8 63 20 63 56 0 34 -21
52 -63 54 -45 3 -85 25 -90 50 -2 11 -5 56 -6 98 l-2 78 33 20 c18 11 45 20
59 20 28 0 59 27 59 51 0 8 -7 25 -16 38 -14 20 -23 22 -56 18 -23 -3 -53 0
-71 8 -29 12 -33 21 -54 102 l-22 88 24 24 c13 14 39 30 56 35 40 14 54 35 45
70 -9 36 -47 54 -78 35 -13 -8 -40 -13 -61 -11 -37 3 -39 5 -78 88 -21 47 -39
87 -39 90 0 12 45 64 55 64 20 0 45 35 45 62 0 52 -57 72 -98 35 -10 -9 -35
-17 -54 -17 -33 0 -40 6 -91 77 l-56 76 20 38 c10 21 28 43 39 49 13 7 20 21
20 40 0 58 -62 81 -98 36 -10 -14 -34 -27 -55 -31 -34 -7 -40 -3 -105 55 l-69
63 10 40 c6 22 19 49 29 59 25 25 23 53 -8 77 -30 24 -49 19 -90 -25 -49 -52
-69 -52 -157 2 -76 46 -77 48 -77 88 0 23 7 50 15 60 8 11 15 26 15 33 0 20
-37 53 -60 53 -23 0 -63 -36 -55 -49 3 -5 -9 -21 -27 -36 -35 -30 -39 -29
-143 8 -64 23 -71 28 -77 59 -4 18 -5 44 -1 58 3 14 7 31 9 38 4 19 -32 52
-56 52 -27 0 -60 -35 -60 -63 0 -28 -51 -80 -71 -73 -8 3 -47 10 -87 16 -71
12 -74 13 -89 48 -8 19 -12 44 -9 55 5 21 -9 57 -28 69 -20 14 -46 8 -67 -13z
m72 -111 c14 -26 5 -35 -36 -33 -44 3 -50 8 -33 34 15 25 56 24 69 -1z m-359
-40 c-9 -4 -31 -7 -49 -7 -29 -1 -32 1 -24 21 12 33 52 40 73 14 16 -20 16
-21 0 -28z m714 -25 c8 -32 5 -34 -43 -21 -41 10 -42 11 -27 33 19 30 62 23
70 -12z m-447 -76 c14 -42 22 -80 18 -83 -4 -4 -62 -9 -129 -10 -68 -2 -128
-6 -135 -9 -18 -6 -17 -1 16 90 l28 80 59 5 c121 10 115 13 143 -73z m-632 16
c-47 -17 -57 -15 -57 10 0 16 8 26 28 33 23 9 30 7 44 -10 16 -20 16 -21 -15
-33z m711 -13 c-17 -39 -34 -68 -37 -64 -9 8 -29 123 -23 129 3 3 25 5 48 5
l43 0 -31 -70z m-321 43 c-3 -10 -11 -42 -17 -70 -7 -29 -15 -53 -19 -53 -3 0
-15 24 -25 53 -10 28 -21 57 -23 64 -5 12 16 20 60 22 22 1 27 -3 24 -16z
m482 6 c36 -6 70 -15 74 -18 7 -7 12 -36 21 -134 3 -31 0 -37 -13 -33 -34 11
-195 36 -227 36 -19 0 -34 4 -34 9 0 22 83 151 98 151 8 0 45 -5 81 -11z
m-566 -81 c20 -40 35 -73 34 -74 -2 -2 -47 -13 -101 -24 -53 -12 -115 -28
-137 -35 -37 -13 -40 -13 -35 3 3 9 8 49 12 87 3 39 8 72 11 75 7 8 125 38
153 39 22 1 31 -9 63 -71z m764 40 c7 -1 9 -6 6 -12 -14 -23 -86 -116 -90
-116 -2 0 -3 32 -1 71 l3 71 35 -7 c19 -3 40 -7 47 -7z m-1017 -86 c0 -38 -3
-72 -7 -75 -6 -7 -73 96 -73 112 0 7 48 27 73 30 4 1 7 -30 7 -67z m1121 49
c108 -37 111 -40 105 -85 -3 -23 -5 -54 -6 -71 -1 -56 -11 -59 -80 -30 -35 15
-92 36 -127 46 -36 11 -63 24 -61 29 3 9 108 130 112 130 2 0 27 -8 57 -19z
m217 3 c16 -5 22 -14 22 -35 0 -34 -1 -34 -43 -13 -42 22 -42 21 -27 39 14 17
16 17 48 9z m-1422 -71 c72 -88 69 -82 48 -98 -10 -8 -25 -15 -32 -15 -7 0
-54 -20 -104 -45 -59 -30 -94 -42 -98 -35 -4 6 -8 34 -9 63 -1 29 -3 63 -4 77
-1 17 6 28 23 37 42 22 125 61 131 62 3 1 23 -20 45 -46z m-282 -2 c16 -18 15
-20 -19 -40 -20 -11 -38 -21 -41 -21 -12 0 -1 55 14 66 23 18 26 17 46 -5z
m1675 -9 l41 -19 -56 -53 c-30 -29 -57 -50 -60 -47 -5 4 25 137 31 137 2 0 21
-8 44 -18z m-704 -22 c3 -9 3 -56 0 -105 -7 -112 -12 -194 -20 -360 -4 -71 -8
-152 -10 -180 -2 -27 -6 -115 -11 -195 -4 -80 -8 -165 -9 -190 -1 -25 -6 -112
-10 -195 -9 -183 -11 -215 -19 -222 -3 -4 -6 9 -7 28 0 19 -2 41 -4 49 -6 29
-20 118 -30 195 -3 28 -10 73 -15 100 -5 28 -12 73 -15 100 -3 28 -8 57 -10
65 -2 8 -7 42 -10 75 -4 32 -8 62 -10 65 -1 3 -6 30 -9 60 -8 70 -14 111 -21
159 -3 21 -8 54 -10 72 -2 19 -13 93 -24 164 -11 72 -23 153 -26 180 -3 28 -8
62 -11 77 -10 53 0 63 68 66 35 2 64 4 65 5 1 1 33 2 72 2 56 0 72 -3 76 -15z
m228 -14 c37 -7 70 -16 74 -20 8 -7 11 7 -147 -611 -66 -258 -139 -545 -162
-637 -23 -93 -46 -168 -51 -168 -4 0 -6 4 -3 8 2 4 7 68 11 141 3 73 7 158 10
189 2 32 6 122 10 202 4 80 8 168 10 195 2 28 7 109 10 180 3 72 8 153 10 180
2 28 6 113 10 190 3 77 9 148 12 159 4 16 12 17 72 12 36 -4 96 -13 134 -20z
m-522 -40 c2 -35 6 -66 28 -216 12 -80 24 -158 27 -175 16 -120 56 -395 59
-415 2 -14 7 -47 10 -75 3 -27 10 -72 15 -100 5 -27 12 -68 14 -90 2 -22 14
-104 25 -183 12 -79 21 -146 20 -150 -1 -8 -18 38 -99 268 -34 96 -78 220 -97
275 -55 154 -68 191 -112 315 -22 63 -61 174 -86 245 -69 193 -91 258 -90 275
0 16 48 32 175 60 78 16 86 17 98 2 6 -9 12 -25 13 -36z m-614 -43 c6 -35 7
-63 3 -63 -9 0 -90 89 -90 100 0 4 15 17 33 27 38 24 42 20 54 -64z m1763 35
c67 -40 70 -44 64 -72 -12 -55 -42 -131 -50 -129 -8 2 -224 130 -231 137 -5 4
128 106 138 106 5 0 40 -19 79 -42z m-464 6 c84 -27 204 -77 204 -86 0 -10
-34 -85 -115 -253 -207 -429 -245 -508 -245 -511 0 -1 -46 -99 -103 -216 -57
-117 -116 -241 -132 -275 -16 -35 -30 -61 -32 -59 -2 2 8 50 23 107 14 57 27
111 29 119 2 8 22 87 45 175 23 88 48 187 56 220 8 33 21 83 29 110 7 28 46
178 85 335 74 295 90 350 100 350 4 0 29 -7 56 -16z m674 -58 c0 -6 -4 -17 -9
-25 -7 -11 -14 -10 -40 8 -35 25 -38 36 -14 49 19 11 63 -12 63 -32z m-2041
-13 c31 -26 59 -52 63 -57 3 -5 -24 -29 -60 -54 -37 -24 -88 -62 -113 -83
l-47 -38 -22 82 c-12 45 -23 85 -24 89 -1 7 132 107 143 108 2 0 29 -21 60
-47z m397 -18 c11 -33 23 -67 27 -75 5 -14 27 -75 112 -320 18 -52 59 -167 90
-255 31 -88 61 -171 65 -185 5 -14 25 -70 44 -125 20 -55 50 -140 67 -190 16
-49 34 -99 39 -110 16 -38 21 -60 12 -50 -10 11 -462 768 -508 850 -6 11 -58
99 -116 196 -58 97 -109 185 -112 196 -7 21 -5 22 149 95 44 20 87 36 95 35 8
-1 24 -28 36 -62z m1604 -44 c0 -7 -121 -83 -125 -79 -2 2 10 33 27 70 l31 67
33 -26 c19 -14 34 -28 34 -32z m-320 -4 c116 -67 150 -91 150 -107 0 -11 -833
-1136 -865 -1168 -11 -12 12 41 99 222 47 98 86 179 86 181 0 1 40 85 89 186
49 101 104 218 124 259 19 41 74 155 121 253 47 98 86 182 86 186 0 8 22 31
30 31 3 0 39 -20 80 -43z m-1968 19 c16 -12 15 -15 -17 -46 l-34 -33 -7 27
c-4 19 -1 33 11 46 21 23 24 24 47 6z m68 -61 c0 -7 9 -35 20 -61 11 -26 18
-49 16 -52 -4 -3 -80 46 -116 76 -8 6 62 62 72 56 4 -3 8 -11 8 -19z m390
-108 c40 -67 87 -146 106 -174 19 -29 34 -55 34 -58 0 -2 19 -35 42 -72 23
-38 46 -77 52 -88 19 -34 368 -622 418 -702 11 -18 17 -33 15 -33 -3 0 -76 79
-164 177 -87 97 -163 181 -168 187 -94 99 -645 718 -645 725 0 20 216 175 230
166 5 -3 41 -60 80 -128z m1947 59 c24 -22 43 -44 43 -49 0 -12 -58 -129 -70
-141 -6 -5 -25 7 -47 30 -21 21 -67 63 -101 93 -34 30 -59 58 -55 62 5 5 40
24 78 43 79 38 66 41 152 -38z m-2395 -38 c24 -12 55 -30 69 -39 l26 -18 -61
-63 c-34 -35 -76 -81 -93 -102 -18 -22 -34 -38 -37 -35 -8 9 -76 147 -76 155
0 10 112 124 122 124 4 0 27 -10 50 -22z m2276 -113 c34 -32 62 -64 62 -71 0
-6 -15 -24 -32 -39 -58 -51 -413 -369 -418 -375 -3 -3 -93 -84 -200 -180 -107
-96 -240 -215 -295 -265 -55 -50 -109 -97 -119 -105 -26 -20 -18 -7 55 90 31
41 219 293 419 560 199 267 369 491 378 498 17 13 21 11 150 -113z m288 101
c18 -18 18 -40 0 -55 -10 -9 -19 -4 -39 23 -14 18 -23 36 -20 40 11 11 44 6
59 -8z m-36 -96 c0 -7 -130 -53 -135 -48 -2 2 14 30 36 61 l41 57 29 -32 c16
-18 29 -35 29 -38z m-2264 -122 c76 -84 170 -188 208 -232 39 -43 80 -88 91
-100 48 -53 171 -190 185 -207 9 -9 49 -54 90 -99 41 -45 81 -90 90 -99 8 -10
49 -55 90 -101 41 -45 77 -86 78 -91 2 -5 -205 147 -460 337 -254 191 -516
385 -580 433 -64 47 -119 92 -122 99 -4 8 3 26 14 40 43 56 155 171 167 172 7
0 74 -69 149 -152z m-514 107 c0 -12 -35 -65 -43 -65 -3 0 -10 10 -16 23 -13
29 13 68 40 58 10 -4 19 -11 19 -16z m93 -76 c21 -33 35 -62 33 -64 -5 -6
-128 54 -128 61 0 9 44 63 52 63 4 1 23 -26 43 -60z m2765 -6 c27 -38 50 -71
50 -75 0 -10 -99 -128 -108 -128 -4 1 -30 35 -59 78 -29 42 -64 90 -78 106
-14 16 -25 32 -25 35 0 6 131 47 158 50 6 0 35 -29 62 -66z m-183 -70 c79
-105 107 -153 97 -162 -8 -8 -502 -302 -739 -441 -44 -26 -175 -104 -292 -173
-117 -70 -214 -127 -218 -127 -7 0 12 18 125 120 52 47 97 87 100 90 3 3 43
39 90 80 47 41 90 80 95 86 6 5 51 46 100 90 50 43 92 81 95 84 3 3 48 43 100
90 52 47 100 90 106 95 6 6 46 42 89 80 43 39 99 89 124 112 25 23 53 43 62
43 8 0 38 -30 66 -67z m-2644 21 c29 -9 64 -20 79 -26 l27 -10 -45 -65 c-25
-36 -56 -87 -69 -114 -14 -26 -28 -50 -32 -52 -5 -3 -32 26 -61 64 l-53 69 37
63 c41 68 54 87 61 87 2 0 28 -7 56 -16z m2995 -54 c9 -15 10 -26 2 -40 -15
-28 -22 -25 -48 20 l-23 40 28 0 c17 0 33 -8 41 -20z m-2362 -365 c571 -427
664 -497 664 -501 0 -6 -40 12 -135 59 -50 24 -112 54 -138 66 -26 12 -105 49
-175 83 -70 33 -172 82 -227 108 -596 284 -635 303 -635 317 0 20 36 89 88
166 32 48 51 67 62 64 9 -2 232 -165 496 -362z m2289 274 c-13 -4 -48 -10 -77
-14 l-53 -6 54 52 53 53 24 -40 24 -39 -25 -6z m-3151 -15 c12 -5 13 -10 3
-32 -20 -48 -28 -55 -43 -33 -10 14 -11 26 -4 45 10 27 17 30 44 20z m156
-117 c0 -9 -37 -3 -102 17 l-38 11 22 43 22 43 48 -53 c26 -29 47 -57 48 -61z
m3076 27 c19 -41 34 -79 34 -83 0 -5 -30 -31 -67 -59 l-66 -52 -24 60 c-14 33
-40 89 -59 126 -19 36 -34 67 -34 69 0 4 49 9 128 12 l53 3 35 -76z m-206 -9
c16 -27 41 -81 56 -118 24 -58 26 -70 13 -81 -8 -8 -68 -33 -134 -56 -66 -23
-196 -69 -290 -102 -93 -32 -188 -66 -210 -73 -22 -8 -193 -68 -380 -135 -187
-66 -344 -120 -349 -120 -10 0 3 8 344 210 394 233 581 345 735 438 83 50 158
90 169 89 10 -1 30 -23 46 -52z m-2915 -39 c28 -3 53 -5 57 -5 4 -1 -3 -25
-16 -53 -19 -44 -49 -126 -72 -196 -5 -17 -17 -10 -87 51 l-56 49 25 71 c28
78 44 97 77 92 12 -3 45 -6 72 -9z m224 -76 c67 -33 123 -60 125 -60 2 0 93
-43 202 -96 110 -53 231 -111 269 -129 83 -39 279 -132 457 -218 70 -33 126
-62 124 -64 -2 -2 -118 25 -257 61 -221 56 -947 241 -989 251 -105 26 -147 39
-157 49 -9 8 -5 29 16 91 37 107 68 175 79 175 5 0 64 -27 131 -60z m3042 -6
c7 -21 6 -31 -8 -46 -17 -19 -18 -19 -35 19 -22 51 -22 53 7 53 18 0 28 -7 36
-26z m-78 -39 l16 -44 -75 3 c-41 1 -77 5 -79 8 -5 5 101 75 117 77 3 1 13
-19 21 -44z m-29 -71 c28 -2 51 -6 53 -7 1 -2 9 -30 17 -63 29 -118 33 -105
-44 -146 -38 -21 -73 -38 -78 -38 -5 0 -15 28 -22 63 -6 34 -20 93 -31 132
-10 38 -19 71 -19 73 0 2 17 1 38 -2 20 -4 59 -9 86 -12z m-3395 -49 c-12 -47
-12 -47 -32 -27 -26 26 -17 69 16 74 12 2 23 3 25 2 2 -1 -2 -23 -9 -49z m176
-43 c-5 -5 -137 -3 -142 2 -2 2 1 24 8 49 l11 45 64 -46 c35 -25 61 -48 59
-50z m3088 46 c17 -56 34 -125 43 -182 5 -37 -3 -44 -66 -52 -31 -4 -120 -18
-190 -29 -14 -2 -78 -11 -142 -20 -65 -9 -126 -18 -136 -20 -11 -2 -43 -6 -73
-10 -30 -4 -130 -18 -224 -31 -93 -14 -188 -27 -210 -30 -22 -3 -65 -9 -95
-14 -30 -5 -75 -12 -100 -15 -25 -3 -56 -8 -70 -10 -14 -3 -47 -7 -74 -10 -28
-4 -53 -8 -58 -11 -4 -3 -8 -2 -8 3 0 4 49 24 108 45 59 20 139 48 177 61 114
42 414 148 500 178 84 29 385 135 495 174 98 35 104 34 123 -27z m-3078 -95
c-4 -15 -15 -78 -24 -140 l-16 -111 -72 42 c-40 23 -75 44 -78 48 -5 5 10 124
21 160 5 17 21 21 123 26 l53 3 -7 -28z m111 13 c47 -14 433 -112 1044 -266
157 -40 289 -76 294 -81 6 -5 1 -7 -10 -5 -18 4 -97 8 -384 21 -97 5 -265 14
-350 20 -41 3 -129 7 -195 10 -335 16 -488 25 -508 31 -14 5 -16 14 -12 62 6
70 23 166 35 198 11 28 19 29 86 10z m3289 -113 c6 -27 -9 -53 -31 -53 -8 0
-14 6 -14 14 0 7 -3 27 -6 44 -6 27 -4 29 19 25 17 -3 28 -14 32 -30z m-85 -5
c0 -13 3 -33 6 -44 l6 -22 -76 16 c-42 9 -76 19 -76 23 0 8 99 47 123 48 11 1
17 -7 17 -21z m-180 -52 c1 0 3 -60 7 -132 7 -153 12 -146 -102 -139 -38 2
-126 6 -195 10 -69 3 -159 8 -200 10 -41 2 -138 7 -215 11 -77 4 -160 8 -185
9 -25 1 -115 6 -200 10 -85 4 -175 9 -200 10 -25 2 -73 4 -108 6 -61 2 -76 9
-30 14 13 2 39 5 58 8 19 3 58 9 85 12 28 3 64 9 80 12 17 3 39 7 50 8 20 2
67 9 180 25 33 5 78 11 100 14 22 3 118 17 214 31 95 14 194 28 220 31 25 3
53 7 61 9 8 2 35 7 60 10 52 6 117 16 144 21 10 2 44 6 75 10 31 3 57 7 59 9
3 3 41 -5 42 -9z m109 -22 c89 -29 87 -27 86 -134 l0 -64 -78 -24 c-43 -14
-79 -23 -81 -21 -5 6 -14 269 -9 269 2 0 39 -12 82 -26z m-3369 -51 c57 -25
75 -42 48 -44 -7 0 -21 -2 -30 -4 -10 -2 -36 -6 -58 -10 l-40 -7 0 46 c0 25 5
46 10 46 6 0 37 -12 70 -27z m-114 -24 c-2 -22 -6 -43 -8 -45 -10 -9 -41 25
-42 47 -2 27 10 39 37 39 15 0 17 -6 13 -41z m464 -34 c85 -4 180 -8 210 -10
30 -3 114 -7 185 -10 72 -3 155 -8 185 -10 30 -2 107 -6 170 -9 169 -9 435
-23 459 -25 33 -2 -1 -10 -109 -26 -138 -20 -167 -24 -200 -30 -14 -2 -41 -6
-60 -9 -48 -6 -190 -27 -216 -31 -12 -2 -48 -7 -80 -10 -33 -4 -66 -9 -74 -10
-8 -1 -35 -6 -60 -10 -25 -5 -54 -9 -65 -10 -11 -1 -36 -5 -55 -8 -36 -7 -69
-11 -155 -22 -27 -4 -57 -8 -65 -10 -8 -2 -42 -7 -75 -11 -33 -3 -63 -8 -66
-10 -3 -2 -40 -6 -82 -10 l-76 -6 -6 33 c-3 19 -7 78 -9 132 -4 112 4 128 57
122 17 -2 102 -6 187 -10z m-265 -76 c-1 -45 2 -106 5 -136 3 -30 3 -56 0 -58
-3 -2 -42 8 -86 23 l-79 28 0 89 0 89 70 22 c39 12 75 23 80 23 6 1 10 -32 10
-80z m1483 -20 c-10 -5 -43 -18 -75 -28 -32 -11 -317 -111 -633 -224 -664
-236 -638 -227 -660 -227 -16 0 -40 81 -75 247 -6 28 25 38 187 58 18 2 49 6
68 9 19 3 53 8 75 11 22 3 96 14 165 25 69 10 145 21 170 25 25 3 56 8 70 10
14 2 45 7 70 10 25 4 59 8 75 11 29 5 251 37 345 49 25 4 56 9 70 11 14 3 45
7 70 10 25 3 46 7 47 8 1 1 12 2 25 3 20 2 21 1 6 -8z m522 -4 c69 -3 157 -7
195 -10 39 -2 124 -7 190 -10 66 -3 169 -8 228 -11 142 -7 202 -10 382 -19 83
-4 158 -11 168 -16 14 -8 16 -19 11 -62 -10 -88 -33 -200 -43 -210 -10 -10
-1375 324 -1411 344 -9 5 22 7 70 4 47 -3 141 -7 210 -10z m-515 -14 c-5 -9
-166 -106 -885 -534 -157 -93 -299 -178 -316 -188 -53 -32 -61 -27 -108 74
-70 151 -70 150 -51 163 8 6 50 24 93 38 42 15 106 38 142 51 36 13 106 38
155 55 50 18 113 40 140 50 28 11 129 46 225 80 96 33 191 67 210 75 19 8 82
30 140 50 58 20 139 49 180 65 41 15 76 28 78 29 2 1 1 -3 -3 -8z m1622 -352
c21 -11 21 -13 7 -61 -33 -111 -76 -208 -91 -208 -9 0 -95 38 -192 84 -328
156 -416 198 -506 241 -179 85 -282 133 -380 180 -55 26 -133 63 -172 81 -40
19 -73 36 -73 38 0 6 1384 -343 1407 -355z m258 294 c-2 -21 -4 -41 -4 -45 -1
-3 -33 8 -71 25 -39 17 -67 34 -63 38 9 8 124 27 134 22 4 -2 5 -20 4 -40z
m-1865 34 c0 -2 -50 -48 -112 -103 -61 -54 -116 -103 -122 -109 -6 -5 -56 -50
-111 -100 -55 -49 -118 -106 -140 -127 -22 -20 -52 -47 -66 -60 -14 -12 -60
-54 -102 -92 -43 -38 -90 -80 -105 -94 -15 -13 -45 -41 -67 -61 -22 -20 -83
-75 -135 -122 -139 -126 -125 -124 -202 -21 -75 101 -91 129 -85 146 4 9 370
235 432 266 6 3 21 12 35 21 14 9 149 90 300 179 151 90 318 189 370 221 87
53 110 65 110 56z m357 -67 c80 -38 147 -70 149 -70 2 0 63 -29 136 -64 73
-35 192 -92 263 -126 72 -34 164 -78 205 -97 195 -92 367 -175 388 -189 l22
-15 -26 -52 c-15 -28 -47 -82 -71 -119 -33 -51 -48 -65 -61 -61 -19 8 -37 20
-382 277 -140 104 -316 234 -390 289 -222 165 -374 279 -384 288 -22 20 13 5
151 -61z m1574 60 c24 -13 26 -65 3 -74 -29 -11 -34 -6 -34 39 0 49 1 50 31
35z m-1917 -12 c-10 -16 -260 -355 -309 -418 -19 -25 -149 -199 -289 -387
-140 -188 -263 -346 -274 -352 -17 -9 -33 3 -118 84 l-99 94 60 58 c33 32 146
135 250 228 104 94 219 197 255 230 36 33 105 96 154 140 49 44 98 89 110 100
13 11 58 52 101 90 43 39 97 87 119 107 44 40 52 45 40 26z m356 -130 c41 -30
226 -167 410 -304 184 -138 385 -287 447 -333 61 -45 114 -90 117 -98 8 -21
-7 -42 -96 -137 -58 -62 -78 -77 -90 -70 -9 5 -47 43 -85 85 -64 71 -206 229
-228 253 -5 7 -35 39 -65 72 -30 33 -73 80 -95 104 -22 25 -85 95 -140 155
-111 123 -240 267 -268 299 -10 12 -36 40 -58 63 -21 23 -39 45 -39 48 0 3 26
-13 58 -38 31 -24 91 -68 132 -99z m-362 60 c-17 -35 -43 -90 -58 -123 -15
-33 -56 -118 -90 -190 -34 -71 -79 -166 -100 -210 -21 -44 -62 -132 -93 -195
-63 -133 -141 -296 -202 -425 -58 -122 -62 -125 -128 -90 -43 24 -131 78 -170
106 -14 10 5 39 158 244 324 435 562 755 613 825 52 71 92 120 98 120 1 0 -11
-28 -28 -62z m377 -178 c77 -85 142 -157 145 -160 3 -3 48 -52 100 -110 51
-58 130 -145 174 -194 45 -49 88 -97 96 -106 32 -37 166 -184 180 -198 22 -23
60 -75 60 -84 0 -9 -121 -106 -177 -141 l-42 -26 -26 30 c-14 17 -33 45 -41
61 -9 17 -70 121 -136 232 -66 110 -213 356 -326 546 -113 190 -212 356 -220
370 -21 34 47 -35 213 -220z m1406 184 c49 -29 65 -44 64 -59 -6 -63 -17 -132
-23 -142 -9 -14 -153 -34 -165 -23 -4 4 -3 27 2 51 12 54 26 148 30 208 1 16
9 13 92 -35z m-1756 -6 c-2 -13 -7 -39 -9 -58 -3 -19 -19 -91 -36 -160 -17
-69 -38 -152 -47 -185 -8 -33 -16 -67 -18 -75 -54 -221 -219 -859 -226 -872
-13 -24 -33 -23 -126 11 -102 37 -143 58 -143 75 0 12 56 133 170 371 44 92
143 300 202 425 22 47 73 153 112 235 40 83 83 174 96 203 25 56 33 65 25 30z
m345 -338 c106 -179 202 -341 215 -360 36 -57 58 -94 70 -115 6 -11 57 -99
115 -195 57 -96 105 -183 105 -194 2 -14 -23 -31 -109 -72 -61 -30 -117 -54
-123 -54 -22 0 -38 39 -133 305 -50 143 -113 321 -140 395 -26 74 -65 182 -85
240 -20 58 -57 160 -81 227 -24 68 -46 138 -49 155 -5 31 -5 32 8 13 8 -11
101 -166 207 -345z m-1956 290 c27 -6 54 -14 59 -17 6 -3 -21 -18 -59 -33 -38
-15 -71 -25 -73 -24 -2 2 -6 24 -9 50 -4 41 -2 45 14 40 11 -3 41 -10 68 -16z
m-112 -55 c2 -20 -1 -30 -9 -29 -7 1 -20 2 -28 3 -22 2 -20 57 2 70 21 11 29
1 35 -44z m202 -7 c3 -13 17 -70 31 -128 14 -58 25 -109 25 -112 0 -7 -26 -5
-125 10 l-49 7 -20 83 c-23 95 -31 80 69 134 61 34 63 34 69 6z m1631 -218 c3
-19 7 -46 10 -60 3 -14 7 -38 9 -55 2 -16 18 -111 36 -210 17 -99 33 -193 35
-210 3 -16 16 -108 30 -203 14 -95 27 -188 31 -205 3 -18 7 -57 8 -89 l3 -56
-35 -4 c-20 -3 -82 -6 -138 -7 -121 -3 -118 -7 -110 121 3 46 8 133 11 193 3
61 8 146 10 190 2 44 7 136 10 205 3 69 8 159 10 200 3 41 7 129 10 195 8 152
14 215 22 229 6 9 25 -82 48 -234z m234 -340 c24 -70 68 -193 121 -340 87
-241 110 -310 108 -322 -4 -17 -41 -33 -126 -52 -39 -9 -73 -16 -76 -16 -4 0
-11 29 -20 85 -26 160 -125 745 -161 950 -19 110 -35 205 -34 210 0 9 136
-362 188 -515z m1437 418 c3 -3 0 -25 -6 -47 l-11 -42 -60 43 c-33 23 -63 46
-66 51 -6 9 133 5 143 -5z m-76 -83 c50 -44 51 -48 13 -142 l-25 -63 -77 6
c-42 3 -79 9 -83 12 -4 4 11 59 34 122 22 63 42 121 44 129 4 11 9 10 27 -5
12 -11 42 -38 67 -59z m153 13 c-4 -23 -11 -28 -34 -28 -27 0 -28 1 -18 33 6
17 13 38 15 46 9 28 43 -20 37 -51z m-1838 -120 c-3 -62 -8 -147 -10 -188 -2
-41 -7 -133 -10 -205 -4 -71 -8 -161 -10 -200 -2 -38 -7 -128 -10 -200 -9
-198 -9 -198 -80 -189 -62 8 -66 11 -60 41 5 31 63 372 71 418 7 42 22 135 29
170 3 17 22 128 42 248 21 119 39 217 41 217 1 0 0 -51 -3 -112z m-1495 56 c0
-7 -8 -14 -17 -17 -10 -3 -37 -17 -61 -32 l-42 -26 -15 35 c-23 56 -22 57 60
54 48 -2 75 -7 75 -14z m1385 -150 c-15 -82 -28 -162 -31 -179 -2 -16 -9 -56
-14 -87 -6 -32 -12 -70 -15 -85 -2 -16 -7 -39 -9 -53 -3 -14 -8 -43 -11 -65
-3 -22 -7 -47 -10 -55 -2 -8 -6 -32 -10 -54 -9 -60 -47 -281 -49 -283 -1 -1
-19 0 -39 4 -45 7 -46 11 -11 146 14 56 27 109 29 117 12 60 190 748 192 746
2 -2 -8 -70 -22 -152z m-1288 -13 c24 -52 42 -95 41 -97 -2 -1 -42 -5 -89 -8
l-86 -6 -36 78 -36 77 27 25 c15 14 45 40 67 58 l40 32 14 -32 c8 -18 34 -75
58 -127z m-267 114 c6 -19 9 -39 6 -44 -10 -15 -40 -1 -52 24 -9 19 -8 27 4
39 23 23 29 20 42 -19z m3268 -126 c57 -13 60 -23 24 -78 l-16 -23 -40 44
c-23 24 -48 52 -56 63 -14 17 -13 18 10 12 14 -4 49 -12 78 -18z m-67 -56 c24
-31 48 -63 52 -70 9 -15 -70 -153 -88 -153 -14 0 -147 38 -152 44 -3 3 13 33
36 68 23 35 53 87 69 115 15 29 30 53 33 53 4 0 26 -26 50 -57z m176 -42 c-9
-26 -14 -28 -59 -22 -3 1 3 19 14 42 18 39 20 40 38 24 15 -13 16 -21 7 -44z
m-3116 -61 c-30 -28 -57 -50 -60 -50 -3 0 -16 18 -29 40 l-22 39 37 6 c21 4
43 8 48 10 6 2 26 4 45 4 l35 0 -54 -49z m107 -8 c17 -27 52 -75 77 -107 25
-32 45 -62 45 -66 0 -3 -30 -14 -67 -23 -38 -9 -76 -19 -85 -22 -12 -4 -31 15
-67 66 l-50 72 52 64 c29 35 55 64 58 64 3 0 20 -22 37 -48z m-204 -74 c-3 -4
-15 -8 -27 -8 -32 0 -47 38 -28 68 l14 24 23 -38 c13 -21 21 -41 18 -46z
m2976 -82 c-1 -14 -48 -72 -53 -66 -14 15 -77 121 -77 128 0 6 29 -4 65 -21
36 -17 65 -36 65 -41z m-115 -16 c19 -38 35 -75 35 -82 0 -12 -105 -128 -115
-128 -4 0 -135 70 -144 77 -2 1 28 36 67 77 39 41 78 86 87 100 10 14 21 26
26 26 5 0 25 -31 44 -70z m165 -66 c-14 -24 -26 -29 -54 -18 -13 5 -12 12 11
44 27 36 28 37 42 18 11 -16 11 -24 1 -44z m-2726 -16 c-21 -29 -41 -57 -45
-62 -7 -8 -57 41 -62 60 -2 9 101 53 126 54 16 0 12 -9 -19 -52z m193 -77 c35
-29 60 -57 58 -61 -3 -5 -37 -24 -76 -44 -81 -41 -66 -45 -158 40 l-44 41 37
68 c20 37 39 72 43 78 3 5 22 -8 42 -29 20 -22 64 -63 98 -93z m-301 12 c29
-34 30 -39 3 -46 -30 -8 -63 27 -49 53 14 26 18 25 46 -7z m2438 -97 l24 -87
-70 -49 -71 -50 -60 49 c-34 27 -62 52 -64 57 -2 5 16 21 40 36 23 15 71 52
107 81 36 30 66 53 68 52 1 -1 13 -41 26 -89z m61 53 c30 -23 55 -45 55 -48 0
-10 -59 -65 -64 -60 -4 4 -56 138 -56 145 0 10 14 1 65 -37z m-2147 -116 c-18
-38 -34 -70 -35 -72 -1 -2 -20 10 -41 25 l-40 29 66 42 c37 23 70 43 74 43 4
0 -7 -30 -24 -67z m122 16 c30 -20 79 -48 108 -63 29 -15 50 -31 47 -36 -11
-18 -124 -100 -138 -100 -7 0 -43 19 -79 43 l-65 42 25 82 c16 53 29 80 36 76
6 -4 36 -24 66 -44z m2108 -45 c-21 -21 -25 -22 -43 -8 -20 15 -19 16 14 46
l35 31 8 -23 c7 -19 4 -29 -14 -46z m-419 -71 c2 -32 4 -71 4 -86 1 -26 -5
-31 -76 -63 l-77 -35 -29 33 c-59 68 -83 99 -80 102 2 1 29 13 59 25 30 12 84
37 120 56 36 18 68 31 71 29 3 -1 7 -29 8 -61z m74 10 c23 -25 43 -48 44 -52
4 -9 -75 -52 -80 -43 -3 4 -8 30 -11 57 -4 28 -10 61 -13 74 -8 31 5 23 60
-36z m-1964 -34 c-20 -15 -23 -15 -40 2 -21 21 -22 26 -15 52 4 17 8 16 40
-10 l36 -28 -21 -16z m378 9 c-2 -7 -10 -39 -17 -70 -8 -37 -18 -58 -27 -58
-16 0 -73 28 -73 35 0 9 104 105 114 105 4 0 6 -6 3 -12z m124 -23 c49 -19 93
-35 98 -35 5 0 21 -4 36 -10 l26 -10 -35 -37 c-19 -21 -44 -51 -57 -66 -25
-33 -37 -32 -132 3 l-58 22 5 51 c3 29 5 67 6 85 0 17 5 32 11 32 7 0 52 -16
100 -35z m-388 -28 c28 -19 64 -41 80 -51 29 -18 31 -23 18 -45 -7 -11 -29 -3
-110 39 -55 29 -101 57 -101 61 0 6 28 19 58 28 1 1 26 -14 55 -32z m1472 -83
c-7 -46 -15 -87 -19 -92 -12 -11 -140 -40 -148 -33 -8 7 -16 43 -24 111 l-6
46 73 17 c41 10 79 21 86 25 7 4 20 8 31 9 17 1 17 -3 7 -83z m78 16 c20 -33
37 -62 37 -64 0 -2 -20 -11 -45 -19 l-45 -16 0 80 c0 43 3 79 8 79 4 0 24 -27
45 -60z m376 15 c0 -5 -10 -17 -22 -26 -21 -16 -24 -15 -44 1 l-22 17 37 25
c37 24 50 20 51 -17z m-1271 0 c6 -5 -20 -155 -27 -160 -23 -14 -38 40 -43
155 -1 18 6 21 35 15 17 -4 34 -9 35 -10z m-91 -65 c-2 -39 -6 -72 -8 -75 -5
-4 -80 13 -88 21 -5 5 83 123 92 124 4 0 6 -32 4 -70z m270 42 c22 -7 21 -9
-23 -85 -40 -70 -47 -77 -71 -73 -14 3 -28 7 -30 10 -3 2 1 38 8 80 l13 76 40
-1 c23 -1 51 -4 63 -7z m333 -5 c0 -27 -48 -150 -61 -157 -8 -4 -47 -6 -88 -6
l-74 1 -23 70 c-13 39 -24 75 -24 81 0 7 37 12 107 13 59 1 109 3 111 6 11 11
52 4 52 -8z m49 -76 c6 -36 9 -66 7 -68 -8 -9 -66 -12 -66 -4 0 29 34 151 40
144 4 -4 13 -37 19 -72z m614 65 c9 -7 17 -16 17 -19 0 -3 -37 -18 -82 -35
-131 -47 -128 -46 -128 -23 0 13 10 23 33 30 17 6 55 22 82 36 59 29 55 28 78
11z m-1645 -15 c28 -14 31 -19 19 -29 -21 -18 -76 3 -74 29 2 23 12 23 55 0z
m707 -48 c14 -102 17 -94 -32 -89 -24 2 -46 6 -48 8 -6 6 57 138 66 138 4 0
10 -26 14 -57z m-540 -20 c39 -15 72 -28 74 -30 9 -6 18 -84 10 -89 -15 -9
-10 -64 6 -70 38 -15 5 -21 -118 -20 l-132 0 0 63 c0 69 2 71 57 49 31 -13 39
-13 71 2 29 13 37 22 37 43 0 24 -6 28 -65 44 -54 15 -63 20 -53 32 6 8 18 11
27 8 9 -3 48 -18 86 -32z m1239 -26 c-3 -15 -15 -29 -25 -32 -19 -6 -49 9 -49
25 0 8 72 40 78 35 2 -1 0 -14 -4 -28z m-50 -97 c9 -50 90 -54 102 -5 3 14 10
22 15 20 4 -3 26 3 48 13 46 22 47 21 46 -58 l0 -55 -213 -1 c-186 0 -212 2
-213 15 0 9 -2 23 -4 31 -2 8 -6 31 -10 51 l-6 35 83 20 83 21 31 -30 c18 -16
34 -42 38 -57z m-1008 70 c17 0 18 -11 1 -34 -19 -25 -63 -12 -70 21 -4 23 -2
25 25 19 17 -3 37 -6 44 -6z m88 -52 c-21 -113 -14 -103 -73 -105 -50 -2 -52
-1 -32 13 12 9 21 26 21 42 0 30 45 82 72 82 14 0 16 -6 12 -32z m168 -29 c9
-20 14 -45 12 -56 -5 -18 -13 -20 -57 -18 -70 3 -69 3 -64 23 3 9 8 34 12 55
6 37 7 38 43 35 31 -3 40 -8 54 -39z m448 18 c0 -30 -45 -36 -60 -8 -15 29
-13 31 25 31 30 0 35 -3 35 -23z m-343 -17 c-9 -23 -14 -26 -40 -21 -18 4 -33
15 -38 29 -8 20 -6 22 40 21 48 -2 48 -2 38 -29z m259 -7 c36 -67 30 -70 -116
-70 -125 1 -130 1 -130 22 0 19 24 63 41 75 5 3 48 7 97 8 l88 2 20 -37z"/>
</g>
</svg>
